<mxfile host="app.diagrams.net" agent="Mozilla/5.0 (Macintosh; Intel Mac OS X 10_15_7) AppleWebKit/537.36 (KHTML, like Gecko) Chrome/131.0.0.0 Safari/537.36" version="24.9.0">
  <diagram id="R2lEEEUBdFMjLlhIrx00" name="Page-1">
    <mxGraphModel dx="984" dy="625" grid="1" gridSize="10" guides="1" tooltips="1" connect="1" arrows="1" fold="1" page="1" pageScale="1" pageWidth="850" pageHeight="1100" math="0" shadow="0" extFonts="Permanent Marker^https://fonts.googleapis.com/css?family=Permanent+Marker">
      <root>
        <mxCell id="0" />
        <mxCell id="1" parent="0" />
        <mxCell id="vuTKO9enBC2-v1f265QC-1" value="&amp;nbsp;APARTMENT" style="whiteSpace=wrap;html=1;align=center;" parent="1" vertex="1">
          <mxGeometry x="263" y="500" width="100" height="40" as="geometry" />
        </mxCell>
        <mxCell id="ZVDqC1WfGzCx-gsDfUrJ-4" style="edgeStyle=orthogonalEdgeStyle;rounded=0;orthogonalLoop=1;jettySize=auto;html=1;exitX=0.5;exitY=0;exitDx=0;exitDy=0;" parent="1" source="vuTKO9enBC2-v1f265QC-2" edge="1">
          <mxGeometry relative="1" as="geometry">
            <mxPoint x="230" y="410" as="targetPoint" />
          </mxGeometry>
        </mxCell>
        <mxCell id="vuTKO9enBC2-v1f265QC-2" value="&amp;nbsp;Apartment_ID" style="ellipse;whiteSpace=wrap;html=1;align=center;fontStyle=4;" parent="1" vertex="1">
          <mxGeometry x="170" y="421" width="105" height="38" as="geometry" />
        </mxCell>
        <mxCell id="vuTKO9enBC2-v1f265QC-4" value="Floor_number" style="ellipse;whiteSpace=wrap;html=1;align=center;" parent="1" vertex="1">
          <mxGeometry x="259" y="360" width="100" height="40" as="geometry" />
        </mxCell>
        <mxCell id="vuTKO9enBC2-v1f265QC-6" value="&amp;nbsp;Apartment_type" style="ellipse;whiteSpace=wrap;html=1;align=center;" parent="1" vertex="1">
          <mxGeometry x="340" y="391" width="100" height="40" as="geometry" />
        </mxCell>
        <mxCell id="vuTKO9enBC2-v1f265QC-7" value="" style="endArrow=none;html=1;rounded=0;exitX=0.5;exitY=1;exitDx=0;exitDy=0;entryX=0.25;entryY=0;entryDx=0;entryDy=0;" parent="1" source="vuTKO9enBC2-v1f265QC-2" target="vuTKO9enBC2-v1f265QC-1" edge="1">
          <mxGeometry relative="1" as="geometry">
            <mxPoint x="261" y="445" as="sourcePoint" />
            <mxPoint x="391" y="495" as="targetPoint" />
          </mxGeometry>
        </mxCell>
        <mxCell id="vuTKO9enBC2-v1f265QC-8" value="" style="endArrow=none;html=1;rounded=0;exitX=0.57;exitY=1.05;exitDx=0;exitDy=0;exitPerimeter=0;entryX=0.37;entryY=0.025;entryDx=0;entryDy=0;entryPerimeter=0;" parent="1" source="vuTKO9enBC2-v1f265QC-4" target="vuTKO9enBC2-v1f265QC-1" edge="1">
          <mxGeometry relative="1" as="geometry">
            <mxPoint x="381" y="315" as="sourcePoint" />
            <mxPoint x="400" y="395" as="targetPoint" />
          </mxGeometry>
        </mxCell>
        <mxCell id="vuTKO9enBC2-v1f265QC-10" value="" style="endArrow=none;html=1;rounded=0;entryX=0.5;entryY=1;entryDx=0;entryDy=0;exitX=0.59;exitY=-0.025;exitDx=0;exitDy=0;exitPerimeter=0;" parent="1" source="vuTKO9enBC2-v1f265QC-1" target="vuTKO9enBC2-v1f265QC-6" edge="1">
          <mxGeometry relative="1" as="geometry">
            <mxPoint x="420" y="405" as="sourcePoint" />
            <mxPoint x="391" y="495" as="targetPoint" />
          </mxGeometry>
        </mxCell>
        <mxCell id="vuTKO9enBC2-v1f265QC-11" value="&amp;nbsp;VEHICLE" style="whiteSpace=wrap;html=1;align=center;" parent="1" vertex="1">
          <mxGeometry x="1067.5" y="521" width="100" height="40" as="geometry" />
        </mxCell>
        <mxCell id="vuTKO9enBC2-v1f265QC-12" value="&amp;nbsp;Vehicle_ID_" style="ellipse;whiteSpace=wrap;html=1;align=center;fontStyle=4;" parent="1" vertex="1">
          <mxGeometry x="960" y="441" width="90" height="30" as="geometry" />
        </mxCell>
        <mxCell id="vuTKO9enBC2-v1f265QC-14" value="&amp;nbsp;Type" style="ellipse;whiteSpace=wrap;html=1;align=center;" parent="1" vertex="1">
          <mxGeometry x="1250" y="440" width="50" height="40" as="geometry" />
        </mxCell>
        <mxCell id="vuTKO9enBC2-v1f265QC-18" value="&amp;nbsp;Model" style="ellipse;whiteSpace=wrap;html=1;align=center;" parent="1" vertex="1">
          <mxGeometry x="1082.5" y="391" width="60" height="40" as="geometry" />
        </mxCell>
        <mxCell id="vuTKO9enBC2-v1f265QC-22" value="&amp;nbsp;Driver_ID_Proof" style="ellipse;shape=doubleEllipse;margin=3;whiteSpace=wrap;html=1;align=center;" parent="1" vertex="1">
          <mxGeometry x="1220" y="491" width="105" height="40" as="geometry" />
        </mxCell>
        <mxCell id="vuTKO9enBC2-v1f265QC-26" value="" style="endArrow=none;html=1;rounded=0;entryX=0;entryY=0.5;entryDx=0;entryDy=0;exitX=0.5;exitY=0;exitDx=0;exitDy=0;" parent="1" source="vuTKO9enBC2-v1f265QC-11" target="vuTKO9enBC2-v1f265QC-14" edge="1">
          <mxGeometry relative="1" as="geometry">
            <mxPoint x="1050" y="421" as="sourcePoint" />
            <mxPoint x="1150" y="381" as="targetPoint" />
          </mxGeometry>
        </mxCell>
        <mxCell id="vuTKO9enBC2-v1f265QC-28" value="" style="endArrow=none;html=1;rounded=0;exitX=1;exitY=0.5;exitDx=0;exitDy=0;entryX=0.5;entryY=0;entryDx=0;entryDy=0;" parent="1" source="vuTKO9enBC2-v1f265QC-12" target="vuTKO9enBC2-v1f265QC-11" edge="1">
          <mxGeometry relative="1" as="geometry">
            <mxPoint x="990" y="381" as="sourcePoint" />
            <mxPoint x="1150" y="381" as="targetPoint" />
          </mxGeometry>
        </mxCell>
        <mxCell id="vuTKO9enBC2-v1f265QC-29" value="" style="endArrow=none;html=1;rounded=0;exitX=1;exitY=0.5;exitDx=0;exitDy=0;entryX=0.5;entryY=0;entryDx=0;entryDy=0;" parent="1" source="vuTKO9enBC2-v1f265QC-18" target="vuTKO9enBC2-v1f265QC-11" edge="1">
          <mxGeometry relative="1" as="geometry">
            <mxPoint x="990" y="381" as="sourcePoint" />
            <mxPoint x="1150" y="381" as="targetPoint" />
          </mxGeometry>
        </mxCell>
        <mxCell id="vuTKO9enBC2-v1f265QC-32" value="" style="endArrow=none;html=1;rounded=0;exitX=0.5;exitY=1;exitDx=0;exitDy=0;entryX=0.5;entryY=0;entryDx=0;entryDy=0;" parent="1" source="jdzxeIv0R6BwQFy3njBJ-7" target="vuTKO9enBC2-v1f265QC-11" edge="1">
          <mxGeometry relative="1" as="geometry">
            <mxPoint x="1135" y="361.0000000000001" as="sourcePoint" />
            <mxPoint x="1150" y="381" as="targetPoint" />
          </mxGeometry>
        </mxCell>
        <mxCell id="vuTKO9enBC2-v1f265QC-34" value="" style="endArrow=none;html=1;rounded=0;entryX=0;entryY=0.5;entryDx=0;entryDy=0;exitX=0.5;exitY=0;exitDx=0;exitDy=0;" parent="1" source="vuTKO9enBC2-v1f265QC-11" target="vuTKO9enBC2-v1f265QC-22" edge="1">
          <mxGeometry relative="1" as="geometry">
            <mxPoint x="990" y="381" as="sourcePoint" />
            <mxPoint x="1150" y="381" as="targetPoint" />
          </mxGeometry>
        </mxCell>
        <mxCell id="vuTKO9enBC2-v1f265QC-35" value="&amp;nbsp;Enters" style="shape=rhombus;perimeter=rhombusPerimeter;whiteSpace=wrap;html=1;align=center;" parent="1" vertex="1">
          <mxGeometry x="660" y="340" width="120" height="60" as="geometry" />
        </mxCell>
        <mxCell id="vuTKO9enBC2-v1f265QC-36" value="&amp;nbsp;Exits" style="shape=rhombus;perimeter=rhombusPerimeter;whiteSpace=wrap;html=1;align=center;" parent="1" vertex="1">
          <mxGeometry x="670" y="440" width="120" height="60" as="geometry" />
        </mxCell>
        <mxCell id="vuTKO9enBC2-v1f265QC-38" value="" style="endArrow=none;html=1;rounded=0;exitX=1;exitY=0.5;exitDx=0;exitDy=0;entryX=0;entryY=0.5;entryDx=0;entryDy=0;" parent="1" source="vuTKO9enBC2-v1f265QC-1" target="vuTKO9enBC2-v1f265QC-35" edge="1">
          <mxGeometry relative="1" as="geometry">
            <mxPoint x="810" y="541" as="sourcePoint" />
            <mxPoint x="970" y="541" as="targetPoint" />
          </mxGeometry>
        </mxCell>
        <mxCell id="vuTKO9enBC2-v1f265QC-39" value="1" style="resizable=0;html=1;whiteSpace=wrap;align=right;verticalAlign=bottom;" parent="vuTKO9enBC2-v1f265QC-38" connectable="0" vertex="1">
          <mxGeometry x="1" relative="1" as="geometry" />
        </mxCell>
        <mxCell id="vuTKO9enBC2-v1f265QC-42" value="" style="shape=link;html=1;rounded=0;entryX=1;entryY=0.5;entryDx=0;entryDy=0;exitX=0;exitY=0.5;exitDx=0;exitDy=0;" parent="1" source="vuTKO9enBC2-v1f265QC-11" target="vuTKO9enBC2-v1f265QC-35" edge="1">
          <mxGeometry relative="1" as="geometry">
            <mxPoint x="1040" y="541" as="sourcePoint" />
            <mxPoint x="840" y="561" as="targetPoint" />
          </mxGeometry>
        </mxCell>
        <mxCell id="vuTKO9enBC2-v1f265QC-43" value="N" style="resizable=0;html=1;whiteSpace=wrap;align=right;verticalAlign=bottom;" parent="vuTKO9enBC2-v1f265QC-42" connectable="0" vertex="1">
          <mxGeometry x="1" relative="1" as="geometry" />
        </mxCell>
        <mxCell id="vuTKO9enBC2-v1f265QC-47" value="" style="shape=link;html=1;rounded=0;entryX=1;entryY=0.5;entryDx=0;entryDy=0;exitX=0;exitY=0.5;exitDx=0;exitDy=0;" parent="1" source="vuTKO9enBC2-v1f265QC-11" target="vuTKO9enBC2-v1f265QC-36" edge="1">
          <mxGeometry relative="1" as="geometry">
            <mxPoint x="810" y="541" as="sourcePoint" />
            <mxPoint x="970" y="541" as="targetPoint" />
          </mxGeometry>
        </mxCell>
        <mxCell id="vuTKO9enBC2-v1f265QC-48" value="N" style="resizable=0;html=1;whiteSpace=wrap;align=right;verticalAlign=bottom;" parent="vuTKO9enBC2-v1f265QC-47" connectable="0" vertex="1">
          <mxGeometry x="1" relative="1" as="geometry" />
        </mxCell>
        <mxCell id="vuTKO9enBC2-v1f265QC-50" value="" style="endArrow=none;html=1;rounded=0;exitX=1;exitY=0.5;exitDx=0;exitDy=0;entryX=0;entryY=0.5;entryDx=0;entryDy=0;" parent="1" source="vuTKO9enBC2-v1f265QC-1" target="vuTKO9enBC2-v1f265QC-36" edge="1">
          <mxGeometry relative="1" as="geometry">
            <mxPoint x="810" y="541" as="sourcePoint" />
            <mxPoint x="970" y="541" as="targetPoint" />
          </mxGeometry>
        </mxCell>
        <mxCell id="vuTKO9enBC2-v1f265QC-51" value="1" style="resizable=0;html=1;whiteSpace=wrap;align=right;verticalAlign=bottom;" parent="vuTKO9enBC2-v1f265QC-50" connectable="0" vertex="1">
          <mxGeometry x="1" relative="1" as="geometry" />
        </mxCell>
        <mxCell id="vuTKO9enBC2-v1f265QC-52" value="&amp;nbsp;Entry_date" style="ellipse;whiteSpace=wrap;html=1;align=center;" parent="1" vertex="1">
          <mxGeometry x="610" y="260" width="70" height="40" as="geometry" />
        </mxCell>
        <mxCell id="vuTKO9enBC2-v1f265QC-53" value="&amp;nbsp;Exit_date" style="ellipse;whiteSpace=wrap;html=1;align=center;" parent="1" vertex="1">
          <mxGeometry x="760" y="523" width="60" height="40" as="geometry" />
        </mxCell>
        <mxCell id="vuTKO9enBC2-v1f265QC-54" value="&amp;nbsp;Exit_time" style="ellipse;whiteSpace=wrap;html=1;align=center;" parent="1" vertex="1">
          <mxGeometry x="650" y="523" width="60" height="36" as="geometry" />
        </mxCell>
        <mxCell id="vuTKO9enBC2-v1f265QC-55" value="&amp;nbsp;Entry_time" style="ellipse;whiteSpace=wrap;html=1;align=center;" parent="1" vertex="1">
          <mxGeometry x="720" y="260" width="70" height="40" as="geometry" />
        </mxCell>
        <mxCell id="vuTKO9enBC2-v1f265QC-56" value="" style="endArrow=none;html=1;rounded=0;exitX=0.5;exitY=1;exitDx=0;exitDy=0;entryX=0.5;entryY=0;entryDx=0;entryDy=0;" parent="1" source="vuTKO9enBC2-v1f265QC-55" target="vuTKO9enBC2-v1f265QC-35" edge="1">
          <mxGeometry relative="1" as="geometry">
            <mxPoint x="810" y="540" as="sourcePoint" />
            <mxPoint x="900" y="520" as="targetPoint" />
          </mxGeometry>
        </mxCell>
        <mxCell id="vuTKO9enBC2-v1f265QC-57" value="" style="endArrow=none;html=1;rounded=0;exitX=0.5;exitY=1;exitDx=0;exitDy=0;entryX=0.5;entryY=0;entryDx=0;entryDy=0;" parent="1" source="vuTKO9enBC2-v1f265QC-52" target="vuTKO9enBC2-v1f265QC-35" edge="1">
          <mxGeometry relative="1" as="geometry">
            <mxPoint x="810" y="540" as="sourcePoint" />
            <mxPoint x="970" y="540" as="targetPoint" />
          </mxGeometry>
        </mxCell>
        <mxCell id="vuTKO9enBC2-v1f265QC-58" value="" style="endArrow=none;html=1;rounded=0;exitX=0.5;exitY=1;exitDx=0;exitDy=0;entryX=0.5;entryY=0;entryDx=0;entryDy=0;" parent="1" source="vuTKO9enBC2-v1f265QC-36" target="vuTKO9enBC2-v1f265QC-53" edge="1">
          <mxGeometry relative="1" as="geometry">
            <mxPoint x="810" y="540" as="sourcePoint" />
            <mxPoint x="970" y="540" as="targetPoint" />
          </mxGeometry>
        </mxCell>
        <mxCell id="vuTKO9enBC2-v1f265QC-59" value="" style="endArrow=none;html=1;rounded=0;exitX=0.59;exitY=0;exitDx=0;exitDy=0;exitPerimeter=0;entryX=0.5;entryY=1;entryDx=0;entryDy=0;" parent="1" source="vuTKO9enBC2-v1f265QC-54" target="vuTKO9enBC2-v1f265QC-36" edge="1">
          <mxGeometry relative="1" as="geometry">
            <mxPoint x="810" y="540" as="sourcePoint" />
            <mxPoint x="970" y="540" as="targetPoint" />
          </mxGeometry>
        </mxCell>
        <mxCell id="vuTKO9enBC2-v1f265QC-60" value="&amp;nbsp;Tenant" style="whiteSpace=wrap;html=1;align=center;" parent="1" vertex="1">
          <mxGeometry x="660" y="941" width="100" height="40" as="geometry" />
        </mxCell>
        <mxCell id="vuTKO9enBC2-v1f265QC-61" value="&amp;nbsp;Visitor" style="whiteSpace=wrap;html=1;align=center;" parent="1" vertex="1">
          <mxGeometry x="1000" y="791" width="100" height="40" as="geometry" />
        </mxCell>
        <mxCell id="vuTKO9enBC2-v1f265QC-62" value="&amp;nbsp;Owner" style="whiteSpace=wrap;html=1;align=center;" parent="1" vertex="1">
          <mxGeometry x="313" y="877" width="100" height="40" as="geometry" />
        </mxCell>
        <mxCell id="vuTKO9enBC2-v1f265QC-63" value="&amp;nbsp;Visits" style="shape=rhombus;perimeter=rhombusPerimeter;whiteSpace=wrap;html=1;align=center;" parent="1" vertex="1">
          <mxGeometry x="740" y="630" width="120" height="60" as="geometry" />
        </mxCell>
        <mxCell id="vuTKO9enBC2-v1f265QC-64" value="&amp;nbsp;Tenant_Resides_in" style="shape=rhombus;perimeter=rhombusPerimeter;whiteSpace=wrap;html=1;align=center;" parent="1" vertex="1">
          <mxGeometry x="450" y="641" width="146" height="60" as="geometry" />
        </mxCell>
        <mxCell id="vuTKO9enBC2-v1f265QC-65" value="&amp;nbsp;Apartment_owned_by_owner" style="shape=rhombus;perimeter=rhombusPerimeter;whiteSpace=wrap;html=1;align=center;" parent="1" vertex="1">
          <mxGeometry x="150" y="680" width="190" height="79" as="geometry" />
        </mxCell>
        <mxCell id="vuTKO9enBC2-v1f265QC-66" value="" style="shape=link;html=1;rounded=0;exitX=0.5;exitY=1;exitDx=0;exitDy=0;entryX=0;entryY=0.5;entryDx=0;entryDy=0;" parent="1" source="vuTKO9enBC2-v1f265QC-1" target="vuTKO9enBC2-v1f265QC-63" edge="1">
          <mxGeometry relative="1" as="geometry">
            <mxPoint x="740" y="821" as="sourcePoint" />
            <mxPoint x="900" y="821" as="targetPoint" />
          </mxGeometry>
        </mxCell>
        <mxCell id="vuTKO9enBC2-v1f265QC-67" value="N" style="resizable=0;html=1;whiteSpace=wrap;align=right;verticalAlign=bottom;" parent="vuTKO9enBC2-v1f265QC-66" connectable="0" vertex="1">
          <mxGeometry x="1" relative="1" as="geometry" />
        </mxCell>
        <mxCell id="vuTKO9enBC2-v1f265QC-79" value="" style="shape=link;html=1;rounded=0;exitX=0.5;exitY=1;exitDx=0;exitDy=0;entryX=0;entryY=0.5;entryDx=0;entryDy=0;" parent="1" source="vuTKO9enBC2-v1f265QC-1" target="vuTKO9enBC2-v1f265QC-65" edge="1">
          <mxGeometry relative="1" as="geometry">
            <mxPoint x="570" y="791" as="sourcePoint" />
            <mxPoint x="730" y="791" as="targetPoint" />
          </mxGeometry>
        </mxCell>
        <mxCell id="vuTKO9enBC2-v1f265QC-80" value="N" style="resizable=0;html=1;whiteSpace=wrap;align=right;verticalAlign=bottom;" parent="vuTKO9enBC2-v1f265QC-79" connectable="0" vertex="1">
          <mxGeometry x="1" relative="1" as="geometry" />
        </mxCell>
        <mxCell id="vuTKO9enBC2-v1f265QC-83" value="&amp;nbsp;Status" style="ellipse;whiteSpace=wrap;html=1;align=center;" parent="1" vertex="1">
          <mxGeometry x="287.5" y="621" width="50" height="40" as="geometry" />
        </mxCell>
        <mxCell id="vuTKO9enBC2-v1f265QC-84" value="" style="endArrow=none;html=1;rounded=0;exitX=0.067;exitY=0.725;exitDx=0;exitDy=0;entryX=0.5;entryY=0;entryDx=0;entryDy=0;exitPerimeter=0;" parent="1" source="vuTKO9enBC2-v1f265QC-83" target="vuTKO9enBC2-v1f265QC-65" edge="1">
          <mxGeometry relative="1" as="geometry">
            <mxPoint x="460" y="841" as="sourcePoint" />
            <mxPoint x="620" y="841" as="targetPoint" />
          </mxGeometry>
        </mxCell>
        <mxCell id="vuTKO9enBC2-v1f265QC-86" value="" style="shape=link;html=1;rounded=0;entryX=1;entryY=0.5;entryDx=0;entryDy=0;exitX=0.5;exitY=0;exitDx=0;exitDy=0;" parent="1" source="vuTKO9enBC2-v1f265QC-60" target="vuTKO9enBC2-v1f265QC-64" edge="1">
          <mxGeometry relative="1" as="geometry">
            <mxPoint x="460" y="841" as="sourcePoint" />
            <mxPoint x="620" y="841" as="targetPoint" />
          </mxGeometry>
        </mxCell>
        <mxCell id="vuTKO9enBC2-v1f265QC-87" value="N" style="resizable=0;html=1;whiteSpace=wrap;align=right;verticalAlign=bottom;" parent="vuTKO9enBC2-v1f265QC-86" connectable="0" vertex="1">
          <mxGeometry x="1" relative="1" as="geometry" />
        </mxCell>
        <mxCell id="vuTKO9enBC2-v1f265QC-88" value="" style="endArrow=none;html=1;rounded=0;entryX=0;entryY=0.5;entryDx=0;entryDy=0;exitX=0.5;exitY=1;exitDx=0;exitDy=0;" parent="1" source="vuTKO9enBC2-v1f265QC-1" target="vuTKO9enBC2-v1f265QC-64" edge="1">
          <mxGeometry relative="1" as="geometry">
            <mxPoint x="460" y="621" as="sourcePoint" />
            <mxPoint x="620" y="841" as="targetPoint" />
            <Array as="points" />
          </mxGeometry>
        </mxCell>
        <mxCell id="vuTKO9enBC2-v1f265QC-89" value="1" style="resizable=0;html=1;whiteSpace=wrap;align=right;verticalAlign=bottom;" parent="vuTKO9enBC2-v1f265QC-88" connectable="0" vertex="1">
          <mxGeometry x="1" relative="1" as="geometry" />
        </mxCell>
        <mxCell id="vuTKO9enBC2-v1f265QC-90" value="&amp;nbsp;Purpose" style="ellipse;whiteSpace=wrap;html=1;align=center;" parent="1" vertex="1">
          <mxGeometry x="680" y="710" width="60" height="40" as="geometry" />
        </mxCell>
        <mxCell id="vuTKO9enBC2-v1f265QC-91" value="out_time" style="ellipse;whiteSpace=wrap;html=1;align=center;" parent="1" vertex="1">
          <mxGeometry x="780" y="719" width="60" height="40" as="geometry" />
        </mxCell>
        <mxCell id="vuTKO9enBC2-v1f265QC-92" value="in_time" style="ellipse;whiteSpace=wrap;html=1;align=center;" parent="1" vertex="1">
          <mxGeometry x="730" y="740" width="50" height="40" as="geometry" />
        </mxCell>
        <mxCell id="vuTKO9enBC2-v1f265QC-95" value="" style="endArrow=none;html=1;rounded=0;entryX=0.5;entryY=0;entryDx=0;entryDy=0;exitX=0.5;exitY=1;exitDx=0;exitDy=0;" parent="1" source="vuTKO9enBC2-v1f265QC-63" target="vuTKO9enBC2-v1f265QC-91" edge="1">
          <mxGeometry relative="1" as="geometry">
            <mxPoint x="610" y="721" as="sourcePoint" />
            <mxPoint x="770" y="721" as="targetPoint" />
          </mxGeometry>
        </mxCell>
        <mxCell id="vuTKO9enBC2-v1f265QC-96" value="" style="endArrow=none;html=1;rounded=0;exitX=0.5;exitY=0;exitDx=0;exitDy=0;entryX=0.5;entryY=1;entryDx=0;entryDy=0;" parent="1" source="vuTKO9enBC2-v1f265QC-92" target="vuTKO9enBC2-v1f265QC-63" edge="1">
          <mxGeometry relative="1" as="geometry">
            <mxPoint x="610" y="721" as="sourcePoint" />
            <mxPoint x="770" y="721" as="targetPoint" />
          </mxGeometry>
        </mxCell>
        <mxCell id="vuTKO9enBC2-v1f265QC-97" value="" style="endArrow=none;html=1;rounded=0;exitX=0.717;exitY=0.075;exitDx=0;exitDy=0;exitPerimeter=0;entryX=0.5;entryY=1;entryDx=0;entryDy=0;" parent="1" source="vuTKO9enBC2-v1f265QC-90" target="vuTKO9enBC2-v1f265QC-63" edge="1">
          <mxGeometry relative="1" as="geometry">
            <mxPoint x="610" y="721" as="sourcePoint" />
            <mxPoint x="770" y="721" as="targetPoint" />
          </mxGeometry>
        </mxCell>
        <mxCell id="vuTKO9enBC2-v1f265QC-98" value="&amp;nbsp;Visitor_ID" style="ellipse;whiteSpace=wrap;html=1;align=center;fontStyle=4;" parent="1" vertex="1">
          <mxGeometry x="1010" y="891" width="70" height="40" as="geometry" />
        </mxCell>
        <mxCell id="vuTKO9enBC2-v1f265QC-99" value="Name" style="ellipse;whiteSpace=wrap;html=1;align=center;" parent="1" vertex="1">
          <mxGeometry x="1090" y="901" width="45" height="40" as="geometry" />
        </mxCell>
        <mxCell id="vuTKO9enBC2-v1f265QC-102" value="Visitor_ID_proof" style="ellipse;shape=doubleEllipse;margin=3;whiteSpace=wrap;html=1;align=center;" parent="1" vertex="1">
          <mxGeometry x="1080" y="851" width="110" height="40" as="geometry" />
        </mxCell>
        <mxCell id="vuTKO9enBC2-v1f265QC-103" value="" style="endArrow=none;html=1;rounded=0;exitX=0.275;exitY=0.075;exitDx=0;exitDy=0;entryX=0.5;entryY=1;entryDx=0;entryDy=0;exitPerimeter=0;" parent="1" source="vuTKO9enBC2-v1f265QC-102" target="vuTKO9enBC2-v1f265QC-61" edge="1">
          <mxGeometry relative="1" as="geometry">
            <mxPoint x="910" y="691" as="sourcePoint" />
            <mxPoint x="1070" y="691" as="targetPoint" />
          </mxGeometry>
        </mxCell>
        <mxCell id="vuTKO9enBC2-v1f265QC-105" value="" style="endArrow=none;html=1;rounded=0;exitX=0;exitY=0;exitDx=0;exitDy=0;entryX=0.5;entryY=1;entryDx=0;entryDy=0;" parent="1" source="vuTKO9enBC2-v1f265QC-99" target="vuTKO9enBC2-v1f265QC-61" edge="1">
          <mxGeometry relative="1" as="geometry">
            <mxPoint x="910" y="691" as="sourcePoint" />
            <mxPoint x="1070" y="691" as="targetPoint" />
          </mxGeometry>
        </mxCell>
        <mxCell id="vuTKO9enBC2-v1f265QC-106" value="" style="endArrow=none;html=1;rounded=0;exitX=0.5;exitY=0;exitDx=0;exitDy=0;entryX=0.5;entryY=1;entryDx=0;entryDy=0;" parent="1" source="vuTKO9enBC2-v1f265QC-98" target="vuTKO9enBC2-v1f265QC-61" edge="1">
          <mxGeometry relative="1" as="geometry">
            <mxPoint x="910" y="691" as="sourcePoint" />
            <mxPoint x="1070" y="691" as="targetPoint" />
          </mxGeometry>
        </mxCell>
        <mxCell id="vuTKO9enBC2-v1f265QC-108" value="&amp;nbsp;Rents" style="shape=rhombus;perimeter=rhombusPerimeter;whiteSpace=wrap;html=1;align=center;" parent="1" vertex="1">
          <mxGeometry x="480" y="991" width="120" height="60" as="geometry" />
        </mxCell>
        <mxCell id="vuTKO9enBC2-v1f265QC-112" value="" style="shape=link;html=1;rounded=0;entryX=1;entryY=0.5;entryDx=0;entryDy=0;exitX=0.5;exitY=1;exitDx=0;exitDy=0;" parent="1" source="vuTKO9enBC2-v1f265QC-60" target="vuTKO9enBC2-v1f265QC-108" edge="1">
          <mxGeometry relative="1" as="geometry">
            <mxPoint x="640" y="761" as="sourcePoint" />
            <mxPoint x="800" y="761" as="targetPoint" />
          </mxGeometry>
        </mxCell>
        <mxCell id="vuTKO9enBC2-v1f265QC-113" value="N" style="resizable=0;html=1;whiteSpace=wrap;align=right;verticalAlign=bottom;" parent="vuTKO9enBC2-v1f265QC-112" connectable="0" vertex="1">
          <mxGeometry x="1" relative="1" as="geometry" />
        </mxCell>
        <mxCell id="vuTKO9enBC2-v1f265QC-114" value="" style="endArrow=none;html=1;rounded=0;exitX=0.5;exitY=1;exitDx=0;exitDy=0;entryX=0;entryY=0.5;entryDx=0;entryDy=0;" parent="1" source="vuTKO9enBC2-v1f265QC-62" target="vuTKO9enBC2-v1f265QC-108" edge="1">
          <mxGeometry relative="1" as="geometry">
            <mxPoint x="640" y="761" as="sourcePoint" />
            <mxPoint x="800" y="761" as="targetPoint" />
          </mxGeometry>
        </mxCell>
        <mxCell id="vuTKO9enBC2-v1f265QC-115" value="1" style="resizable=0;html=1;whiteSpace=wrap;align=right;verticalAlign=bottom;" parent="vuTKO9enBC2-v1f265QC-114" connectable="0" vertex="1">
          <mxGeometry x="1" relative="1" as="geometry" />
        </mxCell>
        <mxCell id="vuTKO9enBC2-v1f265QC-116" value="&amp;nbsp;Status" style="ellipse;whiteSpace=wrap;html=1;align=center;" parent="1" vertex="1">
          <mxGeometry x="515" y="917" width="50" height="40" as="geometry" />
        </mxCell>
        <mxCell id="vuTKO9enBC2-v1f265QC-117" value="" style="endArrow=none;html=1;rounded=0;exitX=0.5;exitY=1;exitDx=0;exitDy=0;entryX=0.5;entryY=0;entryDx=0;entryDy=0;" parent="1" source="vuTKO9enBC2-v1f265QC-116" target="vuTKO9enBC2-v1f265QC-108" edge="1">
          <mxGeometry relative="1" as="geometry">
            <mxPoint x="530" y="891" as="sourcePoint" />
            <mxPoint x="690" y="891" as="targetPoint" />
          </mxGeometry>
        </mxCell>
        <mxCell id="vuTKO9enBC2-v1f265QC-119" value="&amp;nbsp;Date_Of_Ownership" style="ellipse;whiteSpace=wrap;html=1;align=center;" parent="1" vertex="1">
          <mxGeometry x="131" y="931" width="120" height="40" as="geometry" />
        </mxCell>
        <mxCell id="vuTKO9enBC2-v1f265QC-120" value="&amp;nbsp;Owner_ID" style="ellipse;whiteSpace=wrap;html=1;align=center;fontStyle=4;" parent="1" vertex="1">
          <mxGeometry x="151" y="876" width="100" height="50" as="geometry" />
        </mxCell>
        <mxCell id="vuTKO9enBC2-v1f265QC-121" value="" style="endArrow=none;html=1;rounded=0;exitX=1;exitY=0.5;exitDx=0;exitDy=0;entryX=0;entryY=0.5;entryDx=0;entryDy=0;" parent="1" source="vuTKO9enBC2-v1f265QC-120" target="vuTKO9enBC2-v1f265QC-62" edge="1">
          <mxGeometry relative="1" as="geometry">
            <mxPoint x="490" y="1051" as="sourcePoint" />
            <mxPoint x="650" y="1051" as="targetPoint" />
          </mxGeometry>
        </mxCell>
        <mxCell id="vuTKO9enBC2-v1f265QC-122" value="" style="endArrow=none;html=1;rounded=0;exitX=1;exitY=0.5;exitDx=0;exitDy=0;entryX=0;entryY=0.5;entryDx=0;entryDy=0;" parent="1" source="vuTKO9enBC2-v1f265QC-119" target="vuTKO9enBC2-v1f265QC-62" edge="1">
          <mxGeometry relative="1" as="geometry">
            <mxPoint x="490" y="1051" as="sourcePoint" />
            <mxPoint x="650" y="1051" as="targetPoint" />
          </mxGeometry>
        </mxCell>
        <mxCell id="vuTKO9enBC2-v1f265QC-125" value="&amp;nbsp;Tenant_ID" style="ellipse;whiteSpace=wrap;html=1;align=center;fontStyle=4;" parent="1" vertex="1">
          <mxGeometry x="780" y="877" width="100" height="40" as="geometry" />
        </mxCell>
        <mxCell id="vuTKO9enBC2-v1f265QC-128" value="" style="endArrow=none;html=1;rounded=0;exitX=1;exitY=0.5;exitDx=0;exitDy=0;entryX=0.5;entryY=1;entryDx=0;entryDy=0;" parent="1" source="vuTKO9enBC2-v1f265QC-60" target="vuTKO9enBC2-v1f265QC-125" edge="1">
          <mxGeometry relative="1" as="geometry">
            <mxPoint x="780" y="811" as="sourcePoint" />
            <mxPoint x="940" y="811" as="targetPoint" />
          </mxGeometry>
        </mxCell>
        <mxCell id="vuTKO9enBC2-v1f265QC-129" value="&amp;nbsp;Vehicle_owned_by_Visitor" style="shape=rhombus;perimeter=rhombusPerimeter;whiteSpace=wrap;html=1;align=center;" parent="1" vertex="1">
          <mxGeometry x="980" y="661" width="170" height="60" as="geometry" />
        </mxCell>
        <mxCell id="vuTKO9enBC2-v1f265QC-130" value="" style="shape=link;html=1;rounded=0;entryX=0;entryY=0.5;entryDx=0;entryDy=0;exitX=0.75;exitY=1;exitDx=0;exitDy=0;" parent="1" source="vuTKO9enBC2-v1f265QC-11" target="vuTKO9enBC2-v1f265QC-129" edge="1">
          <mxGeometry relative="1" as="geometry">
            <mxPoint x="1130" y="581" as="sourcePoint" />
            <mxPoint x="1140" y="771" as="targetPoint" />
          </mxGeometry>
        </mxCell>
        <mxCell id="vuTKO9enBC2-v1f265QC-131" value="N" style="resizable=0;html=1;whiteSpace=wrap;align=right;verticalAlign=bottom;" parent="vuTKO9enBC2-v1f265QC-130" connectable="0" vertex="1">
          <mxGeometry x="1" relative="1" as="geometry" />
        </mxCell>
        <mxCell id="vuTKO9enBC2-v1f265QC-132" value="" style="endArrow=none;html=1;rounded=0;entryX=1;entryY=0.5;entryDx=0;entryDy=0;exitX=0.75;exitY=0;exitDx=0;exitDy=0;" parent="1" source="vuTKO9enBC2-v1f265QC-61" target="vuTKO9enBC2-v1f265QC-129" edge="1">
          <mxGeometry relative="1" as="geometry">
            <mxPoint x="980" y="771" as="sourcePoint" />
            <mxPoint x="1140" y="771" as="targetPoint" />
            <Array as="points" />
          </mxGeometry>
        </mxCell>
        <mxCell id="vuTKO9enBC2-v1f265QC-133" value="1" style="resizable=0;html=1;whiteSpace=wrap;align=right;verticalAlign=bottom;" parent="vuTKO9enBC2-v1f265QC-132" connectable="0" vertex="1">
          <mxGeometry x="1" relative="1" as="geometry" />
        </mxCell>
        <mxCell id="vuTKO9enBC2-v1f265QC-135" value="&amp;nbsp;Family_member" style="shape=ext;margin=3;double=1;whiteSpace=wrap;html=1;align=center;" parent="1" vertex="1">
          <mxGeometry x="920" y="1271" width="110" height="40" as="geometry" />
        </mxCell>
        <mxCell id="vuTKO9enBC2-v1f265QC-138" value="&amp;nbsp;Related_to_tenant" style="shape=rhombus;double=1;perimeter=rhombusPerimeter;whiteSpace=wrap;html=1;align=center;" parent="1" vertex="1">
          <mxGeometry x="670" y="1088" width="130" height="70" as="geometry" />
        </mxCell>
        <mxCell id="vuTKO9enBC2-v1f265QC-139" value="" style="shape=link;html=1;rounded=0;exitX=0.5;exitY=1;exitDx=0;exitDy=0;entryX=0;entryY=0.5;entryDx=0;entryDy=0;" parent="1" source="vuTKO9enBC2-v1f265QC-60" target="vuTKO9enBC2-v1f265QC-138" edge="1">
          <mxGeometry relative="1" as="geometry">
            <mxPoint x="700" y="1281" as="sourcePoint" />
            <mxPoint x="805" y="1086" as="targetPoint" />
          </mxGeometry>
        </mxCell>
        <mxCell id="vuTKO9enBC2-v1f265QC-140" value="1" style="resizable=0;html=1;whiteSpace=wrap;align=right;verticalAlign=bottom;" parent="vuTKO9enBC2-v1f265QC-139" connectable="0" vertex="1">
          <mxGeometry x="1" relative="1" as="geometry" />
        </mxCell>
        <mxCell id="vuTKO9enBC2-v1f265QC-143" value="&amp;nbsp;Related_to_owner" style="shape=rhombus;double=1;perimeter=rhombusPerimeter;whiteSpace=wrap;html=1;align=center;" parent="1" vertex="1">
          <mxGeometry x="287.5" y="1098" width="145" height="60" as="geometry" />
        </mxCell>
        <mxCell id="vuTKO9enBC2-v1f265QC-144" value="" style="shape=link;html=1;rounded=0;exitX=0.336;exitY=0.994;exitDx=0;exitDy=0;entryX=0;entryY=0.5;entryDx=0;entryDy=0;exitPerimeter=0;" parent="1" source="vuTKO9enBC2-v1f265QC-62" target="vuTKO9enBC2-v1f265QC-143" edge="1">
          <mxGeometry relative="1" as="geometry">
            <mxPoint x="310" y="961" as="sourcePoint" />
            <mxPoint x="510" y="1251" as="targetPoint" />
          </mxGeometry>
        </mxCell>
        <mxCell id="vuTKO9enBC2-v1f265QC-145" value="1" style="resizable=0;html=1;whiteSpace=wrap;align=right;verticalAlign=bottom;" parent="vuTKO9enBC2-v1f265QC-144" connectable="0" vertex="1">
          <mxGeometry x="1" relative="1" as="geometry" />
        </mxCell>
        <mxCell id="vuTKO9enBC2-v1f265QC-149" value="&amp;nbsp;Age" style="ellipse;whiteSpace=wrap;html=1;align=center;" parent="1" vertex="1">
          <mxGeometry x="1000" y="1360" width="40" height="40" as="geometry" />
        </mxCell>
        <mxCell id="vuTKO9enBC2-v1f265QC-152" value="&amp;nbsp;Relationship" style="ellipse;whiteSpace=wrap;html=1;align=center;" parent="1" vertex="1">
          <mxGeometry x="1050" y="1371" width="90" height="40" as="geometry" />
        </mxCell>
        <mxCell id="vuTKO9enBC2-v1f265QC-153" value="&amp;nbsp;Name" style="ellipse;whiteSpace=wrap;html=1;align=center;" parent="1" vertex="1">
          <mxGeometry x="833" y="1320" width="60" height="40" as="geometry" />
        </mxCell>
        <mxCell id="vuTKO9enBC2-v1f265QC-155" value="&amp;nbsp;Family_ID_Proof" style="ellipse;shape=doubleEllipse;margin=3;whiteSpace=wrap;html=1;align=center;" parent="1" vertex="1">
          <mxGeometry x="905" y="1400" width="110" height="40" as="geometry" />
        </mxCell>
        <mxCell id="vuTKO9enBC2-v1f265QC-156" value="&amp;nbsp;FamilyMember_ID" style="ellipse;whiteSpace=wrap;html=1;align=center;" parent="1" vertex="1">
          <mxGeometry x="840" y="1360" width="106" height="40" as="geometry" />
        </mxCell>
        <mxCell id="vuTKO9enBC2-v1f265QC-159" value="" style="endArrow=none;html=1;rounded=0;exitX=0.5;exitY=1;exitDx=0;exitDy=0;entryX=0.5;entryY=0;entryDx=0;entryDy=0;" parent="1" source="vuTKO9enBC2-v1f265QC-135" target="vuTKO9enBC2-v1f265QC-155" edge="1">
          <mxGeometry relative="1" as="geometry">
            <mxPoint x="960" y="1391" as="sourcePoint" />
            <mxPoint x="1120" y="1391" as="targetPoint" />
          </mxGeometry>
        </mxCell>
        <mxCell id="vuTKO9enBC2-v1f265QC-160" value="" style="endArrow=none;html=1;rounded=0;exitX=0.5;exitY=1;exitDx=0;exitDy=0;entryX=1;entryY=0.5;entryDx=0;entryDy=0;" parent="1" source="vuTKO9enBC2-v1f265QC-135" target="vuTKO9enBC2-v1f265QC-153" edge="1">
          <mxGeometry relative="1" as="geometry">
            <mxPoint x="960" y="1391" as="sourcePoint" />
            <mxPoint x="1120" y="1391" as="targetPoint" />
          </mxGeometry>
        </mxCell>
        <mxCell id="vuTKO9enBC2-v1f265QC-161" value="" style="endArrow=none;html=1;rounded=0;exitX=0.5;exitY=1;exitDx=0;exitDy=0;entryX=0.361;entryY=0.049;entryDx=0;entryDy=0;entryPerimeter=0;" parent="1" source="vuTKO9enBC2-v1f265QC-135" target="vuTKO9enBC2-v1f265QC-152" edge="1">
          <mxGeometry relative="1" as="geometry">
            <mxPoint x="960" y="1391" as="sourcePoint" />
            <mxPoint x="1120" y="1391" as="targetPoint" />
          </mxGeometry>
        </mxCell>
        <mxCell id="vuTKO9enBC2-v1f265QC-162" value="" style="endArrow=none;html=1;rounded=0;exitX=1;exitY=0;exitDx=0;exitDy=0;entryX=0.5;entryY=1;entryDx=0;entryDy=0;" parent="1" source="vuTKO9enBC2-v1f265QC-156" target="vuTKO9enBC2-v1f265QC-135" edge="1">
          <mxGeometry relative="1" as="geometry">
            <mxPoint x="960" y="1391" as="sourcePoint" />
            <mxPoint x="1120" y="1391" as="targetPoint" />
          </mxGeometry>
        </mxCell>
        <mxCell id="vuTKO9enBC2-v1f265QC-163" value="" style="endArrow=none;html=1;rounded=0;exitX=0.5;exitY=1;exitDx=0;exitDy=0;entryX=0;entryY=0;entryDx=0;entryDy=0;" parent="1" source="vuTKO9enBC2-v1f265QC-135" target="vuTKO9enBC2-v1f265QC-149" edge="1">
          <mxGeometry relative="1" as="geometry">
            <mxPoint x="860" y="1331" as="sourcePoint" />
            <mxPoint x="1040" y="1261" as="targetPoint" />
          </mxGeometry>
        </mxCell>
        <mxCell id="vuTKO9enBC2-v1f265QC-164" value="&amp;nbsp;Vehicle_owned_by_Tenant" style="shape=rhombus;perimeter=rhombusPerimeter;whiteSpace=wrap;html=1;align=center;" parent="1" vertex="1">
          <mxGeometry x="1440" y="820" width="170" height="70" as="geometry" />
        </mxCell>
        <mxCell id="vuTKO9enBC2-v1f265QC-165" value="&amp;nbsp;Vehicle_owned_by_Owner" style="shape=rhombus;perimeter=rhombusPerimeter;whiteSpace=wrap;html=1;align=center;" parent="1" vertex="1">
          <mxGeometry x="1250" y="877" width="164" height="73" as="geometry" />
        </mxCell>
        <mxCell id="vuTKO9enBC2-v1f265QC-175" value="M" style="text;html=1;align=center;verticalAlign=middle;resizable=0;points=[];autosize=1;strokeColor=none;fillColor=none;" parent="1" vertex="1">
          <mxGeometry x="863" y="650" width="30" height="30" as="geometry" />
        </mxCell>
        <mxCell id="vuTKO9enBC2-v1f265QC-177" value="" style="endArrow=none;html=1;rounded=0;entryX=0.5;entryY=0;entryDx=0;entryDy=0;exitX=1;exitY=0.5;exitDx=0;exitDy=0;" parent="1" source="vuTKO9enBC2-v1f265QC-63" target="vuTKO9enBC2-v1f265QC-61" edge="1">
          <mxGeometry relative="1" as="geometry">
            <mxPoint x="860" y="671" as="sourcePoint" />
            <mxPoint x="1050" y="801" as="targetPoint" />
          </mxGeometry>
        </mxCell>
        <mxCell id="vuTKO9enBC2-v1f265QC-182" value="" style="endArrow=none;html=1;rounded=0;entryX=1;entryY=0.5;entryDx=0;entryDy=0;exitX=1;exitY=0.5;exitDx=0;exitDy=0;" parent="1" source="vuTKO9enBC2-v1f265QC-135" target="vuTKO9enBC2-v1f265QC-164" edge="1">
          <mxGeometry relative="1" as="geometry">
            <mxPoint x="1400" y="1281" as="sourcePoint" />
            <mxPoint x="1500" y="791" as="targetPoint" />
            <Array as="points" />
          </mxGeometry>
        </mxCell>
        <mxCell id="vuTKO9enBC2-v1f265QC-183" value="1" style="resizable=0;html=1;whiteSpace=wrap;align=right;verticalAlign=bottom;" parent="vuTKO9enBC2-v1f265QC-182" connectable="0" vertex="1">
          <mxGeometry x="1" relative="1" as="geometry" />
        </mxCell>
        <mxCell id="vuTKO9enBC2-v1f265QC-184" value="" style="endArrow=none;html=1;rounded=0;entryX=1;entryY=0.5;entryDx=0;entryDy=0;exitX=1;exitY=0.5;exitDx=0;exitDy=0;" parent="1" source="vuTKO9enBC2-v1f265QC-135" target="vuTKO9enBC2-v1f265QC-165" edge="1">
          <mxGeometry relative="1" as="geometry">
            <mxPoint x="810" y="931" as="sourcePoint" />
            <mxPoint x="930" y="901" as="targetPoint" />
          </mxGeometry>
        </mxCell>
        <mxCell id="vuTKO9enBC2-v1f265QC-185" value="1" style="resizable=0;html=1;whiteSpace=wrap;align=right;verticalAlign=bottom;" parent="vuTKO9enBC2-v1f265QC-184" connectable="0" vertex="1">
          <mxGeometry x="1" relative="1" as="geometry" />
        </mxCell>
        <mxCell id="vuTKO9enBC2-v1f265QC-193" value="&amp;nbsp;1..N" style="text;html=1;align=center;verticalAlign=middle;resizable=0;points=[];autosize=1;strokeColor=none;fillColor=none;" parent="1" vertex="1">
          <mxGeometry x="418" y="1099" width="50" height="30" as="geometry" />
        </mxCell>
        <mxCell id="vuTKO9enBC2-v1f265QC-195" value="" style="shape=link;html=1;rounded=0;exitX=1;exitY=0.5;exitDx=0;exitDy=0;entryX=-0.029;entryY=0.456;entryDx=0;entryDy=0;entryPerimeter=0;" parent="1" source="vuTKO9enBC2-v1f265QC-143" target="vuTKO9enBC2-v1f265QC-135" edge="1">
          <mxGeometry width="100" relative="1" as="geometry">
            <mxPoint x="460" y="1161" as="sourcePoint" />
            <mxPoint x="560" y="1161" as="targetPoint" />
          </mxGeometry>
        </mxCell>
        <mxCell id="vuTKO9enBC2-v1f265QC-196" value="" style="shape=link;html=1;rounded=0;exitX=1;exitY=0.5;exitDx=0;exitDy=0;entryX=0.443;entryY=0.001;entryDx=0;entryDy=0;entryPerimeter=0;" parent="1" source="vuTKO9enBC2-v1f265QC-138" target="vuTKO9enBC2-v1f265QC-135" edge="1">
          <mxGeometry width="100" relative="1" as="geometry">
            <mxPoint x="800" y="1301" as="sourcePoint" />
            <mxPoint x="900" y="1301" as="targetPoint" />
          </mxGeometry>
        </mxCell>
        <mxCell id="vuTKO9enBC2-v1f265QC-197" value="&amp;nbsp;1..N" style="text;html=1;align=center;verticalAlign=middle;resizable=0;points=[];autosize=1;strokeColor=none;fillColor=none;" parent="1" vertex="1">
          <mxGeometry x="786" y="1100" width="50" height="30" as="geometry" />
        </mxCell>
        <mxCell id="vuTKO9enBC2-v1f265QC-199" value="" style="shape=link;html=1;rounded=0;entryX=0;entryY=0.5;entryDx=0;entryDy=0;" parent="1" target="vuTKO9enBC2-v1f265QC-164" edge="1">
          <mxGeometry width="100" relative="1" as="geometry">
            <mxPoint x="1150" y="561" as="sourcePoint" />
            <mxPoint x="1470" y="981" as="targetPoint" />
          </mxGeometry>
        </mxCell>
        <mxCell id="vuTKO9enBC2-v1f265QC-200" value="" style="shape=link;html=1;rounded=0;exitX=0;exitY=0.5;exitDx=0;exitDy=0;entryX=0.75;entryY=1;entryDx=0;entryDy=0;" parent="1" source="vuTKO9enBC2-v1f265QC-165" target="vuTKO9enBC2-v1f265QC-11" edge="1">
          <mxGeometry width="100" relative="1" as="geometry">
            <mxPoint x="1370" y="981" as="sourcePoint" />
            <mxPoint x="1150" y="571" as="targetPoint" />
          </mxGeometry>
        </mxCell>
        <mxCell id="vuTKO9enBC2-v1f265QC-201" value="N" style="text;html=1;align=center;verticalAlign=middle;resizable=0;points=[];autosize=1;strokeColor=none;fillColor=none;" parent="1" vertex="1">
          <mxGeometry x="1245" y="876" width="30" height="30" as="geometry" />
        </mxCell>
        <mxCell id="vuTKO9enBC2-v1f265QC-204" value="N" style="text;html=1;align=center;verticalAlign=middle;resizable=0;points=[];autosize=1;strokeColor=none;fillColor=none;" parent="1" vertex="1">
          <mxGeometry x="1430" y="821" width="30" height="30" as="geometry" />
        </mxCell>
        <mxCell id="vuTKO9enBC2-v1f265QC-207" value="" style="endArrow=none;html=1;rounded=0;entryX=0;entryY=0.5;entryDx=0;entryDy=0;exitX=0.5;exitY=1;exitDx=0;exitDy=0;" parent="1" source="vuTKO9enBC2-v1f265QC-135" target="jdzxeIv0R6BwQFy3njBJ-5" edge="1">
          <mxGeometry relative="1" as="geometry">
            <mxPoint x="970" y="1311" as="sourcePoint" />
            <mxPoint x="1130" y="1331.0000000000002" as="targetPoint" />
          </mxGeometry>
        </mxCell>
        <mxCell id="jdzxeIv0R6BwQFy3njBJ-1" value="&amp;nbsp;Driver_name" style="ellipse;whiteSpace=wrap;html=1;align=center;" parent="1" vertex="1">
          <mxGeometry x="1210" y="391" width="100" height="40" as="geometry" />
        </mxCell>
        <mxCell id="jdzxeIv0R6BwQFy3njBJ-4" value="" style="endArrow=none;html=1;rounded=0;exitX=0;exitY=0.5;exitDx=0;exitDy=0;entryX=0.5;entryY=0;entryDx=0;entryDy=0;" parent="1" source="jdzxeIv0R6BwQFy3njBJ-1" target="vuTKO9enBC2-v1f265QC-11" edge="1">
          <mxGeometry relative="1" as="geometry">
            <mxPoint x="1270" y="430" as="sourcePoint" />
            <mxPoint x="1200" y="630" as="targetPoint" />
          </mxGeometry>
        </mxCell>
        <mxCell id="jdzxeIv0R6BwQFy3njBJ-5" value="&amp;nbsp;Family_Contact_info" style="ellipse;shape=doubleEllipse;margin=3;whiteSpace=wrap;html=1;align=center;" parent="1" vertex="1">
          <mxGeometry x="1082.5" y="1331" width="127.5" height="40" as="geometry" />
        </mxCell>
        <mxCell id="jdzxeIv0R6BwQFy3njBJ-6" value="&amp;nbsp;Visitor_Contact_info" style="ellipse;shape=doubleEllipse;margin=3;whiteSpace=wrap;html=1;align=center;" parent="1" vertex="1">
          <mxGeometry x="890" y="866" width="130" height="40" as="geometry" />
        </mxCell>
        <mxCell id="jdzxeIv0R6BwQFy3njBJ-7" value="&amp;nbsp;Driver_Contact_info" style="ellipse;shape=doubleEllipse;margin=3;whiteSpace=wrap;html=1;align=center;" parent="1" vertex="1">
          <mxGeometry x="1107.5" y="350" width="120" height="40" as="geometry" />
        </mxCell>
        <mxCell id="jdzxeIv0R6BwQFy3njBJ-10" value="" style="endArrow=none;html=1;rounded=0;exitX=0.5;exitY=0;exitDx=0;exitDy=0;entryX=0.5;entryY=1;entryDx=0;entryDy=0;" parent="1" source="jdzxeIv0R6BwQFy3njBJ-6" target="vuTKO9enBC2-v1f265QC-61" edge="1">
          <mxGeometry relative="1" as="geometry">
            <mxPoint x="910" y="810" as="sourcePoint" />
            <mxPoint x="1070" y="810" as="targetPoint" />
          </mxGeometry>
        </mxCell>
        <mxCell id="gfgnjQg6TGCPkV_o4O66-3" value="&amp;nbsp;Person_count" style="ellipse;whiteSpace=wrap;html=1;align=center;" parent="1" vertex="1">
          <mxGeometry x="690" y="563" width="100" height="40" as="geometry" />
        </mxCell>
        <mxCell id="gfgnjQg6TGCPkV_o4O66-4" value="&amp;nbsp;Person_count" style="ellipse;whiteSpace=wrap;html=1;align=center;" parent="1" vertex="1">
          <mxGeometry x="650" y="220" width="100" height="40" as="geometry" />
        </mxCell>
        <mxCell id="gfgnjQg6TGCPkV_o4O66-5" value="" style="endArrow=none;html=1;rounded=0;exitX=0.5;exitY=1;exitDx=0;exitDy=0;entryX=0.401;entryY=0.056;entryDx=0;entryDy=0;entryPerimeter=0;" parent="1" source="vuTKO9enBC2-v1f265QC-36" target="gfgnjQg6TGCPkV_o4O66-3" edge="1">
          <mxGeometry relative="1" as="geometry">
            <mxPoint x="680" y="500" as="sourcePoint" />
            <mxPoint x="840" y="500" as="targetPoint" />
          </mxGeometry>
        </mxCell>
        <mxCell id="gfgnjQg6TGCPkV_o4O66-6" value="" style="endArrow=none;html=1;rounded=0;exitX=0.5;exitY=1;exitDx=0;exitDy=0;entryX=0.5;entryY=0;entryDx=0;entryDy=0;" parent="1" source="gfgnjQg6TGCPkV_o4O66-4" target="vuTKO9enBC2-v1f265QC-35" edge="1">
          <mxGeometry relative="1" as="geometry">
            <mxPoint x="680" y="500" as="sourcePoint" />
            <mxPoint x="840" y="500" as="targetPoint" />
          </mxGeometry>
        </mxCell>
        <mxCell id="gfgnjQg6TGCPkV_o4O66-7" value="" style="shape=link;html=1;rounded=0;exitX=1;exitY=0.5;exitDx=0;exitDy=0;entryX=0.5;entryY=0;entryDx=0;entryDy=0;" parent="1" source="vuTKO9enBC2-v1f265QC-65" target="vuTKO9enBC2-v1f265QC-62" edge="1">
          <mxGeometry width="100" relative="1" as="geometry">
            <mxPoint x="480" y="760" as="sourcePoint" />
            <mxPoint x="580" y="760" as="targetPoint" />
          </mxGeometry>
        </mxCell>
        <mxCell id="gfgnjQg6TGCPkV_o4O66-8" value="M" style="text;html=1;align=center;verticalAlign=middle;resizable=0;points=[];autosize=1;strokeColor=none;fillColor=none;" parent="1" vertex="1">
          <mxGeometry x="329" y="694" width="30" height="30" as="geometry" />
        </mxCell>
        <mxCell id="x00CH8LMzqRynR6_TMIC-1" value="&amp;nbsp;Last_Name" style="ellipse;whiteSpace=wrap;html=1;align=center;" parent="1" vertex="1">
          <mxGeometry x="1340" y="351" width="80" height="40" as="geometry" />
        </mxCell>
        <mxCell id="x00CH8LMzqRynR6_TMIC-2" value="Middle_Name" style="ellipse;whiteSpace=wrap;html=1;align=center;" parent="1" vertex="1">
          <mxGeometry x="1300" y="300" width="82" height="40" as="geometry" />
        </mxCell>
        <mxCell id="x00CH8LMzqRynR6_TMIC-3" value="&amp;nbsp;First_Name" style="ellipse;whiteSpace=wrap;html=1;align=center;" parent="1" vertex="1">
          <mxGeometry x="1190" y="300" width="77.5" height="40" as="geometry" />
        </mxCell>
        <mxCell id="x00CH8LMzqRynR6_TMIC-5" value="&amp;nbsp;Last_Name" style="ellipse;whiteSpace=wrap;html=1;align=center;" parent="1" vertex="1">
          <mxGeometry x="750" y="1351" width="70" height="40" as="geometry" />
        </mxCell>
        <mxCell id="x00CH8LMzqRynR6_TMIC-6" value="Middle_Name" style="ellipse;whiteSpace=wrap;html=1;align=center;" parent="1" vertex="1">
          <mxGeometry x="670" y="1311" width="80" height="40" as="geometry" />
        </mxCell>
        <mxCell id="x00CH8LMzqRynR6_TMIC-7" value="&amp;nbsp;First_Name" style="ellipse;whiteSpace=wrap;html=1;align=center;" parent="1" vertex="1">
          <mxGeometry x="730" y="1271" width="75" height="40" as="geometry" />
        </mxCell>
        <mxCell id="x00CH8LMzqRynR6_TMIC-8" value="" style="endArrow=none;html=1;rounded=0;exitX=1;exitY=0.5;exitDx=0;exitDy=0;entryX=0;entryY=0.5;entryDx=0;entryDy=0;" parent="1" source="x00CH8LMzqRynR6_TMIC-5" target="vuTKO9enBC2-v1f265QC-153" edge="1">
          <mxGeometry relative="1" as="geometry">
            <mxPoint x="1000" y="1410" as="sourcePoint" />
            <mxPoint x="1160" y="1410" as="targetPoint" />
          </mxGeometry>
        </mxCell>
        <mxCell id="x00CH8LMzqRynR6_TMIC-9" value="" style="endArrow=none;html=1;rounded=0;exitX=1;exitY=0.5;exitDx=0;exitDy=0;entryX=0;entryY=0.5;entryDx=0;entryDy=0;" parent="1" source="x00CH8LMzqRynR6_TMIC-6" target="vuTKO9enBC2-v1f265QC-153" edge="1">
          <mxGeometry relative="1" as="geometry">
            <mxPoint x="760" y="1340" as="sourcePoint" />
            <mxPoint x="1160" y="1410" as="targetPoint" />
          </mxGeometry>
        </mxCell>
        <mxCell id="x00CH8LMzqRynR6_TMIC-10" value="" style="endArrow=none;html=1;rounded=0;exitX=0.97;exitY=0.675;exitDx=0;exitDy=0;exitPerimeter=0;entryX=0;entryY=0.5;entryDx=0;entryDy=0;" parent="1" source="x00CH8LMzqRynR6_TMIC-7" target="vuTKO9enBC2-v1f265QC-153" edge="1">
          <mxGeometry relative="1" as="geometry">
            <mxPoint x="1000" y="1410" as="sourcePoint" />
            <mxPoint x="1160" y="1410" as="targetPoint" />
          </mxGeometry>
        </mxCell>
        <mxCell id="x00CH8LMzqRynR6_TMIC-11" value="" style="endArrow=none;html=1;rounded=0;exitX=0.5;exitY=1;exitDx=0;exitDy=0;entryX=0.5;entryY=0;entryDx=0;entryDy=0;" parent="1" source="x00CH8LMzqRynR6_TMIC-3" target="jdzxeIv0R6BwQFy3njBJ-1" edge="1">
          <mxGeometry relative="1" as="geometry">
            <mxPoint x="1420" y="450" as="sourcePoint" />
            <mxPoint x="1580" y="450" as="targetPoint" />
          </mxGeometry>
        </mxCell>
        <mxCell id="x00CH8LMzqRynR6_TMIC-12" value="" style="endArrow=none;html=1;rounded=0;exitX=0;exitY=1;exitDx=0;exitDy=0;entryX=0.5;entryY=0;entryDx=0;entryDy=0;" parent="1" source="x00CH8LMzqRynR6_TMIC-1" target="jdzxeIv0R6BwQFy3njBJ-1" edge="1">
          <mxGeometry relative="1" as="geometry">
            <mxPoint x="1420" y="450" as="sourcePoint" />
            <mxPoint x="1580" y="450" as="targetPoint" />
          </mxGeometry>
        </mxCell>
        <mxCell id="x00CH8LMzqRynR6_TMIC-13" value="" style="endArrow=none;html=1;rounded=0;exitX=0.5;exitY=1;exitDx=0;exitDy=0;entryX=0.5;entryY=0;entryDx=0;entryDy=0;" parent="1" source="x00CH8LMzqRynR6_TMIC-2" target="jdzxeIv0R6BwQFy3njBJ-1" edge="1">
          <mxGeometry relative="1" as="geometry">
            <mxPoint x="1420" y="450" as="sourcePoint" />
            <mxPoint x="1580" y="450" as="targetPoint" />
          </mxGeometry>
        </mxCell>
        <mxCell id="x00CH8LMzqRynR6_TMIC-14" value="&amp;nbsp;Last_Name" style="ellipse;whiteSpace=wrap;html=1;align=center;" parent="1" vertex="1">
          <mxGeometry x="1167.5" y="957" width="80" height="40" as="geometry" />
        </mxCell>
        <mxCell id="x00CH8LMzqRynR6_TMIC-15" value="Middle_Name" style="ellipse;whiteSpace=wrap;html=1;align=center;" parent="1" vertex="1">
          <mxGeometry x="1107.5" y="991" width="82" height="40" as="geometry" />
        </mxCell>
        <mxCell id="x00CH8LMzqRynR6_TMIC-16" value="&amp;nbsp;First_Name" style="ellipse;whiteSpace=wrap;html=1;align=center;" parent="1" vertex="1">
          <mxGeometry x="1030" y="971" width="77.5" height="40" as="geometry" />
        </mxCell>
        <mxCell id="x00CH8LMzqRynR6_TMIC-17" value="" style="endArrow=none;html=1;rounded=0;exitX=0.5;exitY=0;exitDx=0;exitDy=0;entryX=0.5;entryY=1;entryDx=0;entryDy=0;" parent="1" source="x00CH8LMzqRynR6_TMIC-16" target="vuTKO9enBC2-v1f265QC-99" edge="1">
          <mxGeometry relative="1" as="geometry">
            <mxPoint x="1260" y="1121" as="sourcePoint" />
            <mxPoint x="1100" y="1062" as="targetPoint" />
          </mxGeometry>
        </mxCell>
        <mxCell id="x00CH8LMzqRynR6_TMIC-18" value="" style="endArrow=none;html=1;rounded=0;exitX=0.256;exitY=0.05;exitDx=0;exitDy=0;entryX=0.5;entryY=1;entryDx=0;entryDy=0;exitPerimeter=0;" parent="1" source="x00CH8LMzqRynR6_TMIC-14" target="vuTKO9enBC2-v1f265QC-99" edge="1">
          <mxGeometry relative="1" as="geometry">
            <mxPoint x="1260" y="1121" as="sourcePoint" />
            <mxPoint x="1100" y="1062" as="targetPoint" />
          </mxGeometry>
        </mxCell>
        <mxCell id="x00CH8LMzqRynR6_TMIC-19" value="" style="endArrow=none;html=1;rounded=0;exitX=0.5;exitY=0;exitDx=0;exitDy=0;entryX=0.5;entryY=1;entryDx=0;entryDy=0;" parent="1" source="x00CH8LMzqRynR6_TMIC-15" target="vuTKO9enBC2-v1f265QC-99" edge="1">
          <mxGeometry relative="1" as="geometry">
            <mxPoint x="1260" y="1121" as="sourcePoint" />
            <mxPoint x="1100" y="1062" as="targetPoint" />
          </mxGeometry>
        </mxCell>
        <mxCell id="AppLqVSsUijbq8Frj29d-1" value="&amp;nbsp;Person_count" style="ellipse;whiteSpace=wrap;html=1;align=center;" parent="1" vertex="1">
          <mxGeometry x="840" y="730" width="86" height="40" as="geometry" />
        </mxCell>
        <mxCell id="AppLqVSsUijbq8Frj29d-2" value="" style="endArrow=none;html=1;rounded=0;exitX=0.5;exitY=1;exitDx=0;exitDy=0;entryX=0.419;entryY=0.025;entryDx=0;entryDy=0;entryPerimeter=0;" parent="1" source="vuTKO9enBC2-v1f265QC-63" target="AppLqVSsUijbq8Frj29d-1" edge="1">
          <mxGeometry relative="1" as="geometry">
            <mxPoint x="800" y="700" as="sourcePoint" />
            <mxPoint x="910" y="810" as="targetPoint" />
          </mxGeometry>
        </mxCell>
        <mxCell id="ZVDqC1WfGzCx-gsDfUrJ-5" value="&amp;nbsp;Plate-number" style="ellipse;whiteSpace=wrap;html=1;align=center;" parent="1" vertex="1">
          <mxGeometry x="1020" y="330" width="80" height="51" as="geometry" />
        </mxCell>
        <mxCell id="ZVDqC1WfGzCx-gsDfUrJ-6" value="" style="endArrow=none;html=1;rounded=0;exitX=0.666;exitY=1.013;exitDx=0;exitDy=0;exitPerimeter=0;entryX=0.5;entryY=0;entryDx=0;entryDy=0;" parent="1" source="ZVDqC1WfGzCx-gsDfUrJ-5" target="vuTKO9enBC2-v1f265QC-11" edge="1">
          <mxGeometry relative="1" as="geometry">
            <mxPoint x="760" y="700" as="sourcePoint" />
            <mxPoint x="920" y="700" as="targetPoint" />
          </mxGeometry>
        </mxCell>
        <mxCell id="iDTzF9KoZB-ptWO5sqig-1" value="&amp;nbsp;owner_type" style="ellipse;whiteSpace=wrap;html=1;align=center;" parent="1" vertex="1">
          <mxGeometry x="940" y="381" width="100" height="40" as="geometry" />
        </mxCell>
        <mxCell id="iDTzF9KoZB-ptWO5sqig-4" value="" style="endArrow=none;html=1;rounded=0;exitX=1;exitY=0.5;exitDx=0;exitDy=0;entryX=0.5;entryY=0;entryDx=0;entryDy=0;" parent="1" source="iDTzF9KoZB-ptWO5sqig-1" target="vuTKO9enBC2-v1f265QC-11" edge="1">
          <mxGeometry relative="1" as="geometry">
            <mxPoint x="1020" y="570" as="sourcePoint" />
            <mxPoint x="1180" y="570" as="targetPoint" />
          </mxGeometry>
        </mxCell>
      </root>
    </mxGraphModel>
  </diagram>
</mxfile>
